<svg xmlns="http://www.w3.org/2000/svg" viewBox="0 0 1183 139" fill="#171717">
  <path d="M2.71 4.21c1.5 2.3 22.3 33.6 46.2 69.5l43.5 65.2h75l36.8-64.3c20.1-35.3 38-66.6 39.7-69.5l3-5.2h-65.5l-19.7 33.7c-10.8 18.6-22.6 39.2-26.3 45.8s-6.9 12.1-7 12.3c-.2.2-1.7-2.1-3.5-5s-14.7-23.6-28.8-46.1L70.41-.09H-.09zm258.2 16.7v21h62v97h58v-97h59l-.2-21-.3-21h-178.5zm194 48.5v69.5l28.1-.2 28.1-.3-.2-20.3-.1-20.2h56.9l12.2 20.5 12.2 20.5h34.4c18.9 0 34.4-.3 34.4-.6s-4.3-7.2-9.5-15.4c-12.9-20.2-17.5-27.9-17.5-28.9 0-.4 2.7-2.5 5.9-4.5 11.5-7 19.1-18.8 21.3-32.9 3.9-25.5-10.4-46.5-37.1-54.5-5-1.5-14.2-1.7-87.3-2l-81.8-.3zm145.1-24.6c3.8 3.8 4 9.1.4 12.6l-2.4 2.5h-87.1v-18h86.2zm77.9 24.6v69.5h58l.2-37 .3-36.9 13 11.5c7.2 6.4 25.9 23 41.7 37l28.7 25.4h66.1v-139h-61l-.2 34-.3 33.9-16-14.5c-8.8-8-25.7-23.3-37.7-34l-21.6-19.4h-71.2zm281.6-67.9c-16.1 3.9-30.8 14.9-37.1 27.8-6.1 12.3-6.5 15.9-6.5 65.3v44.3h56v-27h87v27h56.1l-.3-47.8-.3-47.7-2.6-6.6c-6-15.6-14.5-24.7-29.3-31.5-10.8-4.9-16.8-5.4-68.9-5.3-38.2 0-49.4.4-54.1 1.5m92.4 44.2c4.9 2.4 7 7.1 7 15.4v6.8h-87v-6.3c.1-8.1 2.6-13.7 7.1-16 3-1.4 7.6-1.7 36.4-1.7 29.4 0 33.4.2 36.5 1.8m85 74.2v19h46v-38h-46z"/>
</svg>